<svg width="53" height="40" viewBox="0 0 53 40" fill="none" xmlns="http://www.w3.org/2000/svg">
<path fill-rule="evenodd" clip-rule="evenodd" d="M22.1752 35.0856C22.4401 34.5556 23.0846 34.3408 23.6146 34.6058C24.7115 35.1542 27.6481 35.9296 30.2957 34.6058C30.8257 34.3408 31.4701 34.5556 31.7351 35.0856C32.0001 35.6156 31.7853 36.26 31.2553 36.525C27.7904 38.2575 24.105 37.25 22.655 36.525C22.125 36.26 21.9102 35.6156 22.1752 35.0856Z" fill="black"/>
<path d="M10.6076 5.81018C9.29637 8.69216 6.81331 9.64348 4.86919 9.12255C2.92507 8.60163 1.40311 5.96606 1.92394 4.02229C2.44477 2.07852 5.08061 0.557039 7.02473 1.07796C8.96885 1.59889 11.1284 3.86641 10.6076 5.81018Z" fill="#0B0B0B"/>
<path d="M42.9536 5.8594C44.2655 8.74323 46.7498 9.69526 48.6948 9.1741C50.6398 8.65294 52.1624 6.01579 51.6412 4.07079C51.12 2.12578 48.4829 0.603222 46.5379 1.12439C44.5929 1.64555 42.4324 3.91439 42.9536 5.8594Z" fill="#0B0B0B"/>
<path d="M38.9041 32.9077C36.1564 32.9077 33.9934 32.2354 32.4149 30.8908C30.8364 29.5462 29.9985 27.5682 29.9011 24.9569C29.8816 24.3918 29.8718 23.5539 29.8718 22.4431C29.8718 21.3128 29.8816 20.4651 29.9011 19.9C29.9985 17.3277 30.8462 15.3497 32.4441 13.9662C34.0616 12.5631 36.2149 11.8615 38.9041 11.8615C41.5934 11.8615 43.7467 12.5631 45.3641 13.9662C46.9816 15.3497 47.8293 17.3277 47.9072 19.9C47.9462 21.0303 47.9657 21.878 47.9657 22.4431C47.9657 22.9887 47.9462 23.8267 47.9072 24.9569C47.8098 27.5682 46.9718 29.5462 45.3934 30.8908C43.8149 32.2354 41.6518 32.9077 38.9041 32.9077ZM38.9041 28.6985C39.9759 28.6985 40.8236 28.3769 41.4472 27.7339C42.0903 27.0908 42.4313 26.1067 42.4703 24.7815C42.5093 23.6513 42.5287 22.8523 42.5287 22.3846C42.5287 21.878 42.5093 21.079 42.4703 19.9877C42.4313 18.6626 42.0903 17.6785 41.4472 17.0354C40.8041 16.3923 39.9564 16.0708 38.9041 16.0708C37.8518 16.0708 37.0041 16.3923 36.3611 17.0354C35.7375 17.6785 35.3964 18.6626 35.338 19.9877C35.3185 20.5333 35.3088 21.3323 35.3088 22.3846C35.3088 23.4174 35.3185 24.2164 35.338 24.7815C35.3964 26.1067 35.7375 27.0908 36.3611 27.7339C36.9846 28.3769 37.8323 28.6985 38.9041 28.6985Z" fill="black"/>
<path d="M15.1712 32.9077C12.4235 32.9077 10.2605 32.2354 8.68199 30.8908C7.10353 29.5462 6.26558 27.5682 6.16815 24.9569C6.14866 24.3918 6.13892 23.5539 6.13892 22.4431C6.13892 21.3128 6.14866 20.4651 6.16815 19.9C6.26558 17.3277 7.11328 15.3497 8.71122 13.9662C10.3287 12.5631 12.482 11.8615 15.1712 11.8615C17.8605 11.8615 20.0138 12.5631 21.6312 13.9662C23.2487 15.3497 24.0964 17.3277 24.1743 19.9C24.2133 21.0303 24.2328 21.878 24.2328 22.4431C24.2328 22.9887 24.2133 23.8267 24.1743 24.9569C24.0769 27.5682 23.2389 29.5462 21.6605 30.8908C20.082 32.2354 17.9189 32.9077 15.1712 32.9077ZM15.1712 28.6985C16.243 28.6985 17.0907 28.3769 17.7143 27.7339C18.3574 27.0908 18.6984 26.1067 18.7374 24.7815C18.7764 23.6513 18.7958 22.8523 18.7958 22.3846C18.7958 21.878 18.7764 21.079 18.7374 19.9877C18.6984 18.6626 18.3574 17.6785 17.7143 17.0354C17.0712 16.3923 16.2235 16.0708 15.1712 16.0708C14.1189 16.0708 13.2712 16.3923 12.6281 17.0354C12.0046 17.6785 11.6635 18.6626 11.6051 19.9877C11.5856 20.5333 11.5758 21.3323 11.5758 22.3846C11.5758 23.4174 11.5856 24.2164 11.6051 24.7815C11.6635 26.1067 12.0046 27.0908 12.6281 27.7339C13.2517 28.3769 14.0994 28.6985 15.1712 28.6985Z" fill="black"/>
</svg>
