<svg width="20" height="19" viewBox="0 0 20 19" fill="none" xmlns="http://www.w3.org/2000/svg">
<path opacity="0.8" d="M9.72123 18.845C9.4879 18.845 9.30123 18.775 9.16123 18.635C9.02123 18.495 8.95123 18.3083 8.95123 18.075V10.41H1.35623C1.1229 10.41 0.936231 10.34 0.796231 10.2C0.656231 10.06 0.586231 9.87333 0.586231 9.64V9.15C0.586231 8.91667 0.656231 8.73 0.796231 8.59C0.936231 8.45 1.1229 8.38 1.35623 8.38H8.95123V0.924999C8.95123 0.691666 9.02123 0.504999 9.16123 0.364998C9.30123 0.224999 9.4879 0.154999 9.72123 0.154999H10.2462C10.4796 0.154999 10.6662 0.224999 10.8062 0.364998C10.9462 0.504999 11.0162 0.691666 11.0162 0.924999V8.38H18.6462C18.8796 8.38 19.0662 8.45 19.2062 8.59C19.3462 8.73 19.4162 8.91667 19.4162 9.15V9.64C19.4162 9.87333 19.3462 10.06 19.2062 10.2C19.0662 10.34 18.8796 10.41 18.6462 10.41H11.0162V18.075C11.0162 18.3083 10.9462 18.495 10.8062 18.635C10.6662 18.775 10.4796 18.845 10.2462 18.845H9.72123Z" fill="#FCFCFC"/>
</svg>
